HIERARCHY
ROOT Root
{
  OFFSET 0.0 0.0 0.0
  CHANNELS 6 Xposition Yposition Zposition Zrotation Yrotation Xrotation
  JOINT Hips
  {
    OFFSET 0.0 100.0 0.0
    CHANNELS 6 Xposition Yposition Zposition Zrotation Yrotation Xrotation
    JOINT Spine1
    {
      OFFSET 5.003913 -0.037094 -0.013727
      CHANNELS 3 Zrotation Yrotation Xrotation
      JOINT Spine2
      {
        OFFSET 7.125363 -1e-06 0.0
        CHANNELS 3 Zrotation Yrotation Xrotation
        JOINT Chest
        {
          OFFSET 7.594027 1e-06 0.0
          CHANNELS 3 Zrotation Yrotation Xrotation
          JOINT Neck1
          {
            OFFSET 26.313086 -0.460272 -0.181672
            CHANNELS 3 Zrotation Yrotation Xrotation
            JOINT Neck2
            {
              OFFSET 8.045911 0.0 0.0
              CHANNELS 3 Zrotation Yrotation Xrotation
              JOINT Head
              {
                OFFSET 6.432774 0.0 0.0
                CHANNELS 3 Zrotation Yrotation Xrotation
                JOINT HeadEnd
                {
                  OFFSET 16.169773 0.06451 0.00362
                  CHANNELS 3 Zrotation Yrotation Xrotation
                }
                JOINT Jaw
                {
                  OFFSET 0.108741 3.12938 0.002639
                  CHANNELS 3 Zrotation Yrotation Xrotation
                }
                JOINT LeftEye
                {
                  OFFSET 4.45173 8.166359 3.206392
                  CHANNELS 3 Zrotation Yrotation Xrotation
                }
                JOINT RightEye
                {
                  OFFSET 4.436895 8.135758 -3.222429
                  CHANNELS 3 Zrotation Yrotation Xrotation
                }
              }
            }
          }
          JOINT LeftShoulder
          {
            OFFSET 23.218927 5.195579 1.621656
            CHANNELS 3 Zrotation Yrotation Xrotation
            JOINT LeftArm
            {
              OFFSET 15.902118 2e-06 -2e-06
              CHANNELS 3 Zrotation Yrotation Xrotation
              JOINT LeftForeArm
              {
                OFFSET 28.739307 0.0 -1e-06
                CHANNELS 3 Zrotation Yrotation Xrotation
                JOINT LeftHand
                {
                  OFFSET 27.093981 -4e-06 0.0
                  CHANNELS 3 Zrotation Yrotation Xrotation
                  JOINT LeftHandThumb1
                  {
                    OFFSET 2.276781 3.380274 0.83384
                    CHANNELS 3 Zrotation Yrotation Xrotation
                    JOINT LeftHandThumb2
                    {
                      OFFSET 4.705309 -1e-06 -1e-06
                      CHANNELS 3 Zrotation Yrotation Xrotation
                      JOINT LeftHandThumb3
                      {
                        OFFSET 2.798515 0.0 3e-06
                        CHANNELS 3 Zrotation Yrotation Xrotation
                        JOINT LeftHandThumbEnd
                        {
                          OFFSET 3.180793 4e-06 -4e-06
                          CHANNELS 3 Zrotation Yrotation Xrotation
                        }
                      }
                    }
                  }
                  JOINT LeftHandIndex1
                  {
                    OFFSET 3.247786 2.352677 0.137192
                    CHANNELS 3 Zrotation Yrotation Xrotation
                    JOINT LeftHandIndex2
                    {
                      OFFSET 6.367095 1e-06 0.0
                      CHANNELS 3 Zrotation Yrotation Xrotation
                      JOINT LeftHandIndex3
                      {
                        OFFSET 3.662364 0.0 0.0
                        CHANNELS 3 Zrotation Yrotation Xrotation
                        JOINT LeftHandIndex4
                        {
                          OFFSET 2.329242 4e-06 -4e-06
                          CHANNELS 3 Zrotation Yrotation Xrotation
                          JOINT LeftHandIndexEnd
                          {
                            OFFSET 2.767823 1e-06 0.0
                            CHANNELS 3 Zrotation Yrotation Xrotation
                          }
                        }
                      }
                    }
                  }
                  JOINT LeftHandMiddle1
                  {
                    OFFSET 3.163612 0.945023 -0.406112
                    CHANNELS 3 Zrotation Yrotation Xrotation
                    JOINT LeftHandMiddle2
                    {
                      OFFSET 6.276789 3e-06 0.0
                      CHANNELS 3 Zrotation Yrotation Xrotation
                      JOINT LeftHandMiddle3
                      {
                        OFFSET 4.35652 -1e-06 4e-06
                        CHANNELS 3 Zrotation Yrotation Xrotation
                        JOINT LeftHandMiddle4
                        {
                          OFFSET 2.996877 0.0 8e-06
                          CHANNELS 3 Zrotation Yrotation Xrotation
                          JOINT LeftHandMiddleEnd
                          {
                            OFFSET 2.323256 3e-06 -4e-06
                            CHANNELS 3 Zrotation Yrotation Xrotation
                          }
                        }
                      }
                    }
                  }
                  JOINT LeftHandRing1
                  {
                    OFFSET 2.882606 -0.309162 0.107445
                    CHANNELS 3 Zrotation Yrotation Xrotation
                    JOINT LeftHandRing2
                    {
                      OFFSET 6.033198 0.0 4e-06
                      CHANNELS 3 Zrotation Yrotation Xrotation
                      JOINT LeftHandRing3
                      {
                        OFFSET 4.350578 3e-06 0.0
                        CHANNELS 3 Zrotation Yrotation Xrotation
                        JOINT LeftHandRing4
                        {
                          OFFSET 2.651321 2e-06 -7e-06
                          CHANNELS 3 Zrotation Yrotation Xrotation
                          JOINT LeftHandRingEnd
                          {
                            OFFSET 1.937663 1e-06 -4e-06
                            CHANNELS 3 Zrotation Yrotation Xrotation
                          }
                        }
                      }
                    }
                  }
                  JOINT LeftHandPinky1
                  {
                    OFFSET 2.865315 -1.525436 0.575687
                    CHANNELS 3 Zrotation Yrotation Xrotation
                    JOINT LeftHandPinky2
                    {
                      OFFSET 5.54936 1e-06 -8e-06
                      CHANNELS 3 Zrotation Yrotation Xrotation
                      JOINT LeftHandPinky3
                      {
                        OFFSET 3.070974 0.0 -4e-06
                        CHANNELS 3 Zrotation Yrotation Xrotation
                        JOINT LeftHandPinky4
                        {
                          OFFSET 1.549672 1e-06 0.0
                          CHANNELS 3 Zrotation Yrotation Xrotation
                          JOINT LeftHandPinkyEnd
                          {
                            OFFSET 1.952123 0.0 0.0
                            CHANNELS 3 Zrotation Yrotation Xrotation
                          }
                        }
                      }
                    }
                  }
                }
              }
            }
          }
          JOINT RightShoulder
          {
            OFFSET 23.161716 5.296122 -1.380114
            CHANNELS 3 Zrotation Yrotation Xrotation
            JOINT RightArm
            {
              OFFSET -16.027195 -2e-06 1.1e-05
              CHANNELS 3 Zrotation Yrotation Xrotation
              JOINT RightForeArm
              {
                OFFSET -28.736639 4e-06 2e-06
                CHANNELS 3 Zrotation Yrotation Xrotation
                JOINT RightHand
                {
                  OFFSET -27.133619 6e-06 0.0
                  CHANNELS 3 Zrotation Yrotation Xrotation
                  JOINT RightHandThumb1
                  {
                    OFFSET -2.274328 -3.351035 -0.83067
                    CHANNELS 3 Zrotation Yrotation Xrotation
                    JOINT RightHandThumb2
                    {
                      OFFSET -4.703594 -3e-06 2e-06
                      CHANNELS 3 Zrotation Yrotation Xrotation
                      JOINT RightHandThumb3
                      {
                        OFFSET -2.794935 -4e-06 -3e-06
                        CHANNELS 3 Zrotation Yrotation Xrotation
                        JOINT RightHandThumbEnd
                        {
                          OFFSET -3.183852 4e-06 1e-06
                          CHANNELS 3 Zrotation Yrotation Xrotation
                        }
                      }
                    }
                  }
                  JOINT RightHandIndex1
                  {
                    OFFSET -3.253496 -2.33755 -0.127667
                    CHANNELS 3 Zrotation Yrotation Xrotation
                    JOINT RightHandIndex2
                    {
                      OFFSET -6.344434 0.0 0.0
                      CHANNELS 3 Zrotation Yrotation Xrotation
                      JOINT RightHandIndex3
                      {
                        OFFSET -3.654871 0.0 -8e-06
                        CHANNELS 3 Zrotation Yrotation Xrotation
                        JOINT RightHandIndex4
                        {
                          OFFSET -2.327586 -1e-06 0.0
                          CHANNELS 3 Zrotation Yrotation Xrotation
                          JOINT RightHandIndexEnd
                          {
                            OFFSET -2.770001 3e-06 8e-06
                            CHANNELS 3 Zrotation Yrotation Xrotation
                          }
                        }
                      }
                    }
                  }
                  JOINT RightHandMiddle1
                  {
                    OFFSET -3.168223 -0.944764 0.411762
                    CHANNELS 3 Zrotation Yrotation Xrotation
                    JOINT RightHandMiddle2
                    {
                      OFFSET -6.266691 -1e-06 -4e-06
                      CHANNELS 3 Zrotation Yrotation Xrotation
                      JOINT RightHandMiddle3
                      {
                        OFFSET -4.348901 0.0 0.0
                        CHANNELS 3 Zrotation Yrotation Xrotation
                        JOINT RightHandMiddle4
                        {
                          OFFSET -3.00024 2e-06 -4e-06
                          CHANNELS 3 Zrotation Yrotation Xrotation
                          JOINT RightHandMiddleEnd
                          {
                            OFFSET -2.321477 -4e-06 -4e-06
                            CHANNELS 3 Zrotation Yrotation Xrotation
                          }
                        }
                      }
                    }
                  }
                  JOINT RightHandRing1
                  {
                    OFFSET -2.885654 0.293261 -0.119232
                    CHANNELS 3 Zrotation Yrotation Xrotation
                    JOINT RightHandRing2
                    {
                      OFFSET -6.032835 -1e-06 -4e-06
                      CHANNELS 3 Zrotation Yrotation Xrotation
                      JOINT RightHandRing3
                      {
                        OFFSET -4.33881 0.0 -4e-06
                        CHANNELS 3 Zrotation Yrotation Xrotation
                        JOINT RightHandRing4
                        {
                          OFFSET -2.654903 -4e-06 -4e-06
                          CHANNELS 3 Zrotation Yrotation Xrotation
                          JOINT RightHandRingEnd
                          {
                            OFFSET -1.935122 0.0 4e-06
                            CHANNELS 3 Zrotation Yrotation Xrotation
                          }
                        }
                      }
                    }
                  }
                  JOINT RightHandPinky1
                  {
                    OFFSET -2.866241 1.503904 -0.60527
                    CHANNELS 3 Zrotation Yrotation Xrotation
                    JOINT RightHandPinky2
                    {
                      OFFSET -5.553177 -2e-06 0.0
                      CHANNELS 3 Zrotation Yrotation Xrotation
                      JOINT RightHandPinky3
                      {
                        OFFSET -3.062664 -1e-06 -4e-06
                        CHANNELS 3 Zrotation Yrotation Xrotation
                        JOINT RightHandPinky4
                        {
                          OFFSET -1.546529 2e-06 4e-06
                          CHANNELS 3 Zrotation Yrotation Xrotation
                          JOINT RightHandPinkyEnd
                          {
                            OFFSET -1.952341 0.0 -4e-06
                            CHANNELS 3 Zrotation Yrotation Xrotation
                          }
                        }
                      }
                    }
                  }
                }
              }
            }
          }
        }
      }
    }
    JOINT LeftLeg
    {
      OFFSET -8.443107 2.567604 10.043214
      CHANNELS 3 Zrotation Yrotation Xrotation
      JOINT LeftShin
      {
        OFFSET 43.229198 1e-06 -1e-06
        CHANNELS 3 Zrotation Yrotation Xrotation
        JOINT LeftFoot
        {
          OFFSET 42.298611 1e-06 1e-06
          CHANNELS 3 Zrotation Yrotation Xrotation
          JOINT LeftToeBase
          {
            OFFSET 14.165858 1e-06 0.0
            CHANNELS 3 Zrotation Yrotation Xrotation
            JOINT LeftToeEnd
            {
              OFFSET 6.7141 -0.234461 0.0
              CHANNELS 3 Zrotation Yrotation Xrotation
            }
          }
        }
      }
    }
    JOINT RightLeg
    {
      OFFSET -8.303923 2.592729 -10.047278
      CHANNELS 3 Zrotation Yrotation Xrotation
      JOINT RightShin
      {
        OFFSET -43.369682 0.0 1e-06
        CHANNELS 3 Zrotation Yrotation Xrotation
        JOINT RightFoot
        {
          OFFSET -42.260784 4e-06 2e-06
          CHANNELS 3 Zrotation Yrotation Xrotation
          JOINT RightToeBase
          {
            OFFSET -14.222245 -2e-06 -1e-06
            CHANNELS 3 Zrotation Yrotation Xrotation
            JOINT RightToeEnd
            {
              OFFSET -6.660062 0.232574 -2e-06
              CHANNELS 3 Zrotation Yrotation Xrotation
            }
          }
        }
      }
    }
  }
}
MOTION
Frames: 4
Frame Time: 0.03333333333333333
0.0 0.0 0.0 0.0 -0.0 0.0 0.137603 48.750992 5.873931 95.132225 -54.325329 88.018867 15.871895 0.759706 -0.660951 -4.041966 -0.173417 -0.797827 19.635887 0.828966 -2.980837 27.662058 -4.659579 1.985255 -2.672042 0.357551 -0.910875 -16.411997 -2.316224 -1.917392 6e-06 -0.0 -0.0 -0.24826 0.139217 0.00795 -0.228891 0.378235 0.009612 -0.231172 -0.095725 0.008273 -22.301912 -70.030754 24.22464 88.546402 -3.595663 -26.869596 5.642237 -1.232577 -0.046285 49.402275 84.446915 57.660217 17.636631 -26.322739 52.411201 -19.466665 -14.3956 29.410393 0.0 -8.774822 -2e-06 15.687099 -17.474976 6.3287 -0.609776 -1.795654 -3.889328 -4.807088 -11.046813 -2.93785 5e-06 -20.976021 0.0 -5.019971 -25.033564 -4.031881 5e-06 -2e-06 0.0 -10.634536 -5.686972 -3.565588 10.573277 -17.922956 -3.113902 3e-06 -13.821214 1e-06 -0.501778 -31.181511 -4.027015 -10.754272 -58.792828 7.002982 -13.982717 -7.150199 -2.875041 13.772732 -8.401496 -3.218243 0.347734 -34.211555 0.771655 -0.963029 -17.73337 2.621021 -0.0 -0.0 0.0 -17.346424 -20.095224 -4.201779 21.757563 -1.638375 3.866428 2e-06 -6.338826 1e-06 -1.697589 -22.591749 -6.194007 0.0 -5e-06 -2e-06 162.513672 -68.007362 19.98485 88.161369 -5.271294 -33.481518 5.256234 -0.60915 -0.021934 72.895676 71.38665 75.465424 22.18211 -20.375891 49.933319 -16.701811 -16.74353 28.47653 -3e-06 -12.690601 0.0 16.36302 -16.667326 2.433209 -0.105919 -1.513856 -4.275882 -5.03904 -5.612869 -2.953556 4e-06 -11.02052 -2e-06 -6.111297 -15.895329 -3.840469 1e-06 -0.0 1e-06 -10.283369 -5.680288 -4.341838 11.028296 -11.302406 -2.372634 -1.384268 -14.238579 -6.320121 -0.625436 -26.924187 -3.827601 -4.470215 -48.627422 -3.970236 -13.708524 -7.363474 -3.72094 18.14115 -14.052739 -3.242676 7e-06 -18.787266 -2e-06 -0.429712 -8.456044 2.555504 -0.0 1e-06 -0.0 -15.923534 -20.094479 -5.473586 30.41921 -7.190828 1.735923 3e-06 -8.162921 0.0 -1.861903 -22.861469 -6.167941 0.0 -2e-06 -1e-06 126.164261 -0.759953 5.398179 108.908279 0.016126 0.26542 -77.126343 18.612238 -4.787954 -22.293198 1.513312 1.566306 -0.999999 -0.0 -0.0 -57.350456 -9.336681 0.481846 115.430878 -0.691735 -0.044409 -81.672523 2.579636 1.886318 -23.996613 0.89907 1.520577 -1.000002 0.0 0.0 
0.0 0.0 0.0 0.0 -0.0 0.0 0.351086 48.817303 5.892321 94.90435 -54.218983 88.160179 15.870925 0.87475 -0.647335 -4.113245 -0.105519 -0.728635 19.776186 0.817254 -2.831359 27.695091 -4.748258 1.842697 -2.669462 0.358034 -0.925616 -16.231436 -2.331269 -1.982988 6e-06 -0.0 -0.0 -0.253253 0.092653 0.001955 -0.199573 0.333399 -0.000243 -0.21267 -0.140593 0.004066 -22.079166 -70.194794 24.262335 88.763977 -3.494 -27.570517 5.473464 -1.126283 -0.043723 53.789955 83.532646 61.47134 17.636633 -26.322739 52.411209 -19.466663 -14.395598 29.410395 -0.0 -8.774821 -2e-06 15.704606 -17.584492 6.272878 -0.609776 -1.795654 -3.889329 -4.80709 -11.046811 -2.93785 4e-06 -20.976021 0.0 -5.019971 -25.033562 -4.03188 5e-06 -1e-06 -0.0 -10.634535 -5.686971 -3.565588 10.573275 -17.922956 -3.113901 3e-06 -13.821211 1e-06 -0.501777 -31.181507 -4.027016 -10.699004 -58.939335 6.917861 -13.982715 -7.150199 -2.875043 13.772731 -8.401493 -3.218242 0.347734 -34.211559 0.771655 -0.963029 -17.73337 2.62102 0.0 -0.0 -0.0 -17.346422 -20.095221 -4.201782 21.757561 -1.638375 3.866428 1e-06 -6.338825 1e-06 -1.697589 -22.591745 -6.194006 -0.0 -5e-06 -2e-06 162.59523 -67.906967 20.105947 88.146652 -5.255363 -33.579941 4.986579 -0.494194 -0.015606 72.623192 71.092117 75.030693 22.18211 -20.375891 49.933319 -16.701815 -16.74353 28.476534 -2e-06 -12.690601 0.0 16.167877 -16.600525 2.507153 -0.105919 -1.513856 -4.275881 -5.039041 -5.612873 -2.953557 4e-06 -11.020523 -2e-06 -6.111297 -15.89533 -3.840471 -0.0 -2e-06 1e-06 -10.28337 -5.680288 -4.341838 11.028296 -11.302407 -2.372633 -1.384269 -14.238583 -6.320122 -0.625438 -26.924196 -3.827602 -4.513511 -48.66058 -3.865329 -13.708524 -7.363477 -3.720938 18.14115 -14.052738 -3.242676 6e-06 -18.787266 -2e-06 -0.429712 -8.456043 2.555503 0.0 -0.0 -0.0 -15.923534 -20.094482 -5.473585 30.41921 -7.190827 1.735924 3e-06 -8.162924 -0.0 -1.8619 -22.861469 -6.167942 -0.0 -2e-06 -1e-06 126.282669 -0.557156 5.388073 108.884567 -0.019032 0.252174 -77.08651 18.417727 -4.654737 -22.066202 1.532054 1.524092 -0.999998 -0.0 0.0 -57.235199 -9.431699 0.486723 115.266068 -0.736064 -0.069319 -81.360344 2.714805 1.923301 -23.569712 0.884502 1.535491 -1.000002 0.0 0.0 
0.0 0.0 0.0 0.0 -0.0 0.0 0.515958 48.825233 5.851857 94.818222 -54.14983 88.194595 15.83176 0.918283 -0.623909 -4.163829 -0.024575 -0.641964 19.888134 0.795222 -2.722259 27.740761 -4.78967 1.721152 -2.666317 0.304745 -0.944497 -16.168381 -2.375905 -2.04218 5e-06 0.0 -0.0 -0.247684 0.067333 -0.000467 -0.211234 0.304625 -0.011232 -0.221665 -0.160552 0.006751 -21.61272 -70.171097 24.018747 88.892334 -3.402406 -27.93289 5.470629 -1.027451 -0.039714 53.706573 83.016685 60.962555 17.636616 -26.322727 52.411194 -19.466661 -14.395597 29.410395 -1e-06 -8.774821 -1e-06 15.744534 -17.639723 6.194247 -0.609776 -1.795653 -3.889328 -4.807087 -11.046807 -2.93785 5e-06 -20.976015 -2e-06 -5.019968 -25.033546 -4.03188 6e-06 -1e-06 -0.0 -10.634531 -5.686969 -3.565588 10.573271 -17.922947 -3.113901 3e-06 -13.821205 0.0 -0.501776 -31.181498 -4.027016 -10.600081 -58.98555 6.818661 -13.982711 -7.150196 -2.875042 13.772726 -8.401493 -3.218242 0.347734 -34.211544 0.771654 -0.963028 -17.733366 2.621019 -0.0 -2e-06 0.0 -17.346411 -20.095215 -4.201784 21.757555 -1.638374 3.866426 1e-06 -6.338822 1e-06 -1.697588 -22.591742 -6.194006 0.0 -6e-06 -2e-06 162.881775 -67.818352 20.01753 87.948593 -5.258603 -33.610249 4.875756 -0.424578 -0.013432 72.882744 70.930748 75.415962 22.182112 -20.375898 49.933327 -16.701813 -16.74353 28.476538 -2e-06 -12.690601 -0.0 16.123543 -16.508692 2.531536 -0.10592 -1.513856 -4.275882 -5.03904 -5.612871 -2.953557 4e-06 -11.020525 -2e-06 -6.111298 -15.895334 -3.84047 -1e-06 -1e-06 0.0 -10.283369 -5.680288 -4.341839 11.028294 -11.302406 -2.372633 -1.384268 -14.238578 -6.320122 -0.625438 -26.924187 -3.827602 -4.510087 -48.664337 -3.81369 -13.708522 -7.363476 -3.72094 18.14115 -14.052739 -3.242675 6e-06 -18.78727 -1e-06 -0.429713 -8.456044 2.555504 0.0 -0.0 -0.0 -15.923532 -20.094482 -5.473585 30.41921 -7.190824 1.735923 3e-06 -8.162924 0.0 -1.861904 -22.861469 -6.167941 0.0 -2e-06 -1e-06 126.312874 -0.376961 5.351844 108.969101 -0.027452 0.252089 -77.117363 18.2323 -4.576265 -22.105074 1.532688 1.506933 -0.999999 -0.0 0.0 -57.227211 -9.509946 0.596307 115.265495 -0.752472 -0.058223 -81.200249 2.928026 1.841325 -23.26516 0.875087 1.541047 -1.000002 0.0 0.0 
0.0 0.0 0.0 0.0 -0.0 0.0 0.619923 48.804893 5.767217 94.758644 -54.183254 88.27285 15.776851 0.941428 -0.602803 -4.205076 0.010571 -0.584577 19.8986 0.843576 -2.677197 27.766462 -4.824667 1.634874 -2.65968 0.268206 -0.962708 -16.181902 -2.391594 -2.040253 5e-06 0.0 -0.0 -0.244886 0.052683 -0.002169 -0.255369 0.288694 -0.025625 -0.255062 -0.174355 0.015169 -21.299105 -70.092171 23.83654 88.968163 -3.35949 -28.230545 5.572495 -0.954678 -0.039013 53.314346 82.68734 60.573166 17.636625 -26.322733 52.411182 -19.466656 -14.395597 29.410381 -2e-06 -8.774821 -1e-06 15.734074 -17.628372 6.166527 -0.609776 -1.795653 -3.889328 -4.807087 -11.046811 -2.937849 5e-06 -20.976021 0.0 -5.01997 -25.033562 -4.031878 6e-06 -1e-06 -0.0 -10.634532 -5.686969 -3.565587 10.573275 -17.922955 -3.113901 3e-06 -13.821211 1e-06 -0.501778 -31.181507 -4.027013 -10.488363 -58.9921 6.689293 -13.982712 -7.150197 -2.875042 13.772728 -8.401495 -3.218242 0.347735 -34.211555 0.771656 -0.963029 -17.733372 2.62102 -0.0 -0.0 0.0 -17.346413 -20.095215 -4.20178 21.757555 -1.638376 3.866426 2e-06 -6.338825 1e-06 -1.697589 -22.591745 -6.194005 -0.0 -5e-06 -2e-06 163.035568 -67.729874 19.924648 87.743004 -5.413368 -33.57243 4.975579 -0.370353 -0.013555 73.208511 70.894333 76.034531 22.182108 -20.375895 49.933319 -16.701809 -16.743528 28.47653 -3e-06 -12.6906 -0.0 16.152138 -16.448557 2.555207 -0.105919 -1.513856 -4.275881 -5.03904 -5.61287 -2.953556 5e-06 -11.020525 -2e-06 -6.111295 -15.89533 -3.84047 0.0 -0.0 -0.0 -10.283369 -5.680287 -4.341838 11.028294 -11.302404 -2.372633 -1.384268 -14.238578 -6.320121 -0.625437 -26.924191 -3.827601 -4.48213 -48.742668 -3.735556 -13.708521 -7.363475 -3.72094 18.141146 -14.052739 -3.242675 7e-06 -18.787266 -2e-06 -0.429712 -8.456041 2.555503 0.0 -0.0 -0.0 -15.923531 -20.094479 -5.473586 30.419205 -7.190828 1.735923 3e-06 -8.162921 0.0 -1.861902 -22.861467 -6.16794 -0.0 -3e-06 -1e-06 126.170509 -0.220066 5.394088 109.148956 -0.014599 0.259672 -77.319191 18.12583 -4.56241 -22.3323 1.526711 1.5074 -0.999999 0.0 0.0 -57.357784 -9.609128 0.701823 115.379379 -0.710245 -0.036347 -81.247139 3.047319 1.655391 -23.268898 0.875874 1.541475 -1.000002 0.0 0.0 
